<svg width="50" height="55" viewBox="0 0 100 101" fill="none" xmlns="http://www.w3.org/2000/svg">
<rect y="1" width="50" height="50" fill="#3EC28F"/>
<path d="M50 0.5C22.3854 0.5 0 22.8854 0 50.5C0 78.1146 22.3854 100.5 50 100.5C77.6146 100.5 100 78.1146 100 50.5C100 22.8854 77.6146 0.5 50 0.5ZM42 57.5H47.5L47 60L45.5 63L43 65.5L39.5 66.5L36 67L32 66.5L29.5 65L27.5 63L26 60.5L25 58L24.5 56V54.5V52L25 49L26 46L28 43L30.5 41L34.5 39.5H39.5L44 42L46 44.5L47.5 48.5H42.5L41 46L39.5 44.5H36.5L33.5 45L31.5 47L30.5 49L30 51.5V54L30.5 57L31.5 60L33.5 62H38L41 60.5L42 57.5ZM75 39.5L64 67H58.5L48.1234 39.5C48.2588 42.4271 48.1234 35.4323 48.1234 39.5H54L61 58L68.5 39.5H75Z" fill="#226249"/>
</svg>
