<svg id="Capa_1" enable-background="new 0 0 512 512" height="512" viewBox="0 0 512 512" width="512" xmlns="http://www.w3.org/2000/svg"><g><path d="m512 256.004c0-141.482-114.496-256-256-256-141.483 0-256 114.496-256 256 0 68.38 26.628 132.667 74.98 181.019.147.147.298.288.446.435.086.09.176.175.267.26 98.011 97.271 259.062 100.782 360.611.002.092-.086.183-.173.271-.265.147-.146.298-.287.444-.433 48.352-48.35 74.981-112.637 74.981-181.018zm-256-241.033c133.211 0 241.034 107.802 241.034 241.034 0 58.36-20.601 113.553-58.362 157.276v-3.506c0-31.586-22.512-58.845-53.531-64.814l-40.46-7.786c-.893-1.031-1.936-1.935-3.109-2.653l-21.471-13.158c4.185-2.234 5.235-2.975 16.264-9.406 18.752-10.998 30.398-31.337 30.391-53.081-.007-21.197-.025-77.835-.027-85.414 0-61.153-49.789-110.728-110.729-110.728-29.356 0-57.014 11.371-77.88 32.017-2.938 2.906-2.962 7.644-.056 10.582 2.908 2.938 7.645 2.963 10.583.056 18.045-17.858 41.965-27.691 67.353-27.691 12.295 0 24.055 2.331 34.864 6.571-4.381 46.228-44.207 81.338-91.047 79.531-13.499-.525-24.943 10.259-24.943 24.025v30.162c0 .038 0 .076.001.113.323 21.416 8.904 41.498 24.161 56.546 3.255 3.211 6.747 6.094 10.417 8.675v27.282l-2.427 1.487c-9.609-4.252-14.366-7.654-23.82-13.045-14.189-8.322-23.001-23.713-22.996-40.167l.027-85.419c0-14.365 3.1-28.175 9.216-41.045 1.773-3.733.185-8.197-3.548-9.971-3.733-1.773-8.196-.185-9.971 3.548-7.076 14.893-10.664 30.863-10.664 47.466l-.027 85.416c-.007 21.744 11.638 42.083 30.391 53.081 11.104 6.474 12.088 7.177 16.263 9.406l-21.471 13.158c-1.173.719-2.215 1.622-3.108 2.653l-40.46 7.786c-31.017 5.969-53.53 33.227-53.53 64.814v3.506c-37.761-43.722-58.362-98.915-58.362-157.275 0-133.21 107.803-241.032 241.034-241.032zm-90.128 337.721c.454.773.988 1.508 1.603 2.191l14.251 15.83-8.907 7.915c-4.071 3.617-6.013 9.148-5.067 14.435 4.976 27.798 40.929 74.523 64.576 102.832-54.189-5.248-104.531-28.486-144.033-66.789v-19.332c0-24.424 17.408-45.502 41.393-50.118zm33.369-173.936c37.416 1.444 72.65-17.414 92.089-49.474 4.957 11.186 13.626 26.422 28.426 42.362 1.551 1.67 2.405 3.853 2.405 6.149v40.138c-.279 17.444-7.275 33.801-19.705 46.061-25.874 25.521-67.272 25.288-92.91 0-12.43-12.26-19.427-28.617-19.705-46.061v-30.105c-.001-5.198 4.328-9.285 9.4-9.07zm152.514-5.89c-3.328-1.557-7.037-2.433-10.947-2.433h-4.854c-1.063-3.308-2.82-6.374-5.232-8.971-21.578-23.241-28.663-44.82-30.381-51.148 2.179-6.148 3.772-12.519 4.75-19.043 27.774 16.651 46.451 46.971 46.664 81.595zm.035 86.014c.005 16.454-8.806 31.845-22.996 40.166-9.485 5.409-14.207 8.792-23.82 13.045l-2.427-1.487v-27.281c3.669-2.581 7.161-5.465 10.417-8.676 14.259-14.063 22.681-32.523 23.987-52.359h3.857c3.854 0 7.579-.838 10.969-2.423zm-10.982-73.481c6.039 0 10.955 4.911 10.962 10.949v.019c-.003 6.051-4.901 10.955-10.962 10.955h-3.682v-21.924h3.682zm-53.227 106.238c.002 45.869.232 48.599-.696 61.256-18.795 12.029-42.963 12.038-61.77 0-.931-12.678-.698-15.264-.696-61.256 20.117 8.502 43.04 8.505 63.162 0zm-2.582 79.189c-2.999 22.4-10.528 64.07-28.998 118.622-18.472-54.56-26.001-96.225-28.999-118.622 18.303 8.024 39.473 8.12 57.997 0zm-75.549-42.668c.076 4.776-.331 13.763 1.021 29.54 3.595 41.968 15.864 87.736 25.851 119.591-45.186-55.414-52.631-80.113-53.839-86.864-.034-.187.079-.437.274-.61l10.1-8.974c2.685-2.385 4.273-5.673 4.474-9.258s-1.013-7.03-3.416-9.699l-14.044-15.599zm106.397 107.471c-3.416-2.327-8.071-1.443-10.397 1.971-9.476 13.91-20.209 27.815-29.727 39.546 9.974-31.835 22.215-77.539 25.805-119.448 1.354-15.821.946-24.797 1.021-29.54l29.578 18.126-14.044 15.6c-2.403 2.669-3.615 6.113-3.415 9.698.201 3.586 1.789 6.874 4.473 9.259l10.1 8.974c.195.173.308.424.275.61-.85 4.745-3.011 10.694-6.424 17.684-1.813 3.714-.273 8.194 3.44 10.008 3.715 1.815 8.194.273 10.008-3.44 4.078-8.35 6.599-15.42 7.708-21.614.946-5.287-.996-10.819-5.067-14.435l-8.908-7.915 14.252-15.83c.614-.683 1.149-1.417 1.602-2.191l36.186 6.964c23.985 4.616 41.392 25.694 41.392 50.118v19.333c-39.503 38.303-89.845 61.541-144.035 66.789 11.279-13.507 25.738-31.652 38.148-49.869 2.327-3.416 1.444-8.072-1.971-10.398z"/></g></svg>